ply
format ascii 1.0
element vertex 336
property float x
property float y
property float z
property float nx
property float ny
property float nz
element face 668
property list uchar int vertex_indices
end_header
-0.0187294 -0.0579117 -0.00228902 0 0 0
-0.0124889 -0.039731 -0.00253219 0 0 -inf
-0.00359371 -0.0701962 -0.00270144 0 0 0
0.0137293 -0.0572936 -0.0031018 0 0 -0
0.0269774 -0.0544626 -0.00223828 0 0 -inf
0.00987865 -0.047137 -0.00316531 0 0 inf
-0.0330794 0.0933687 0.0328892 0 0 6.14976e+07
-0.0203093 0.0897375 0.0452161 0 0 inf
-0.0363746 0.088948 0.0436528 0 0 inf
-0.000783907 0.0246724 -0.0650502 0 0 -inf
-0.0070451 0.0375023 -0.0766049 0 0 -8.38892e+14
-0.0111778 0.0325237 -0.0666378 0 0 -inf
-0.0314272 0.0701459 0.0472353 0 0 -inf
-0.0428921 0.0744328 0.0466684 0 0 -0
-0.0237577 0.0728319 0.0699569 0 0 inf
-0.0238499 0.0889428 0.0353495 0 0 11182.6
-0.021993 0.0785719 0.0369385 0 0 inf
-0.0258134 0.0955535 0.0325076 0 0 0
0.0403604 -0.0550071 0.0373524 0 0 inf
0.0236485 -0.0610649 0.0236623 0 0 0
0.0237761 -0.0684371 0.035368 0 0 inf
-0.0192508 -0.0557922 0.00970156 0 0 inf
-0.020153 -0.064319 0.0144077 0 0 0
-0.00721391 -0.0527306 0.0194129 0 0 -inf
-0.0036258 -0.0859981 -0.0233609 0 0 -0
-0.003937 -0.0652359 -0.0283569 0 0 -inf
-0.00692607 -0.0732887 -0.0228275 0 0 -0
0.0341093 0.000733641 -0.0554645 0 0 -inf
0.0270324 0.0055199 -0.0695996 0 0 2.41543e-09
0.037167 0.013844 -0.0589333 0 0 -inf
-0.00794827 0.00944289 0.0145635 0 0 -0
-0.00194572 0.0175687 0.0184958 0 0 -inf
-0.0016742 0.0139635 0.0319201 0 0 -0
-0.00414164 0.0321979 -0.0536357 0 0 -inf
0.00553056 0.0322936 -0.0685514 0 0 -inf
0.00319985 0.0330909 -0.0621996 0 0 -inf
0.0109659 -0.0717463 0.017905 0 0 0
0.00777908 -0.0663301 0.0176895 0 0 0
0.0136261 -0.0700166 0.0291048 0 0 -0
0.0304445 0.0423551 0.0242018 0 0 4.83498e+09
0.0217137 0.0476128 0.0256764 0 0 -inf
0.0237663 0.048932 0.0361924 0 0 -0
-0.0260795 0.089426 0.0547149 0 0 -inf
-0.00508992 0.0759716 0.0706082 0 0 inf
-0.0127917 -0.0749249 0.00336002 0 0 0
-0.00389127 -0.0664506 0.0032589 0 0 -0
-0.000181964 0.0154116 -0.013502 0 0 0
-0.00907788 0.0194669 -0.0129815 0 0 -inf
0.000492077 0.00746147 0.000978769 0 0 -inf
-0.00769568 -0.0379267 0.0331576 0 0 0
-0.00568712 -0.0476591 0.0187261 0 0 0
0.00519226 0.0450778 0.0135025 0 0 9.67262e-24
0.0107008 0.0629613 0.0321454 0 0 -inf
0.0122856 0.0529829 0.0150254 0 0 inf
-0.00462907 0.02317 -0.0229657 0 0 1.27909e-06
-0.00560454 0.0270686 -0.0307149 0 0 -0
0.0298172 -0.0720153 -0.024955 0 0 -0
0.0278211 -0.0587847 -0.0232194 0 0 -0
0.0150041 -0.0666216 -0.0505147 0 0 inf
0.0284594 -0.00995549 0.0190061 0 0 -0
0.0272712 0.0100095 0.0161253 0 0 -9.14704e-33
0.0315964 0.00615425 0.0152004 0 0 -inf
-0.011543 0.0798801 0.0531022 0 0 0
-0.000296145 0.0845832 0.0441358 0 0 inf
-0.00195613 0.0870613 0.056191 0 0 0
0.00548939 0.0151862 0.0315691 0 0 inf
0.015447 0.00378522 0.029524 0 0 -inf
0.000446736 -0.00472599 0.0227056 0 0 0
-0.00849903 0.0316865 -0.0558943 0 0 inf
-0.0059902 0.028746 -0.0546521 0 0 -0
0.0156924 -0.0708951 0.0131814 0 0 8.93497e-35
0.0367023 -0.0691258 0.0108666 0 0 -0
0.0197817 0.00410644 -0.0205666 0 0 -inf
0.0292923 0.0130445 -0.0151772 0 0 -2.65724e-10
0.0295459 0.00711313 -0.00616157 0 0 0
0.0384395 -0.0521273 -0.00228142 0 0 -9.30407e-08
0.0450105 -0.0537955 0.00535416 0 0 -inf
0.0403933 -0.053975 0.0239942 0 0 3.07313
0.0100776 0.056232 0.0708439 0 0 -1.99802e-11
0.000656155 0.0655865 0.0618157 0 0 8.29535e-10
0.0143671 0.0455198 0.0578505 0 0 inf
-0.00395609 0.017575 0.020249 0 0 -0
-0.00457853 0.0261889 0.00729023 0 0 2.07557e-14
0.00129857 -0.0867606 -0.027262 0 0 inf
-0.00575245 -0.0798053 -0.0269104 0 0 -0
-0.00088017 -0.0766648 -0.0159722 0 0 -0
0.0109236 -0.00197914 0.0270337 0 0 inf
0.00891684 -0.0222115 0.0369055 0 0 -0
0.00395791 0.00651074 0.0247258 0 0 0
0.0109873 0.0381843 -0.0741889 0 0 -9.85951e+26
-0.00095176 0.0351922 -0.0798215 0 0 -0
-0.0058324 -0.040808 -0.0102557 0 0 -0
0.00199365 -0.0542535 -0.00544626 0 0 inf
0.0216383 -0.0192447 -0.00941067 0 0 inf
0.0226147 -0.0337305 -0.00524809 0 0 -0
0.00498074 -0.0325455 -0.011772 0 0 4.02644e-32
0.0308208 -0.0473097 0.0328066 0 0 0
0.024346 -0.0448383 0.0293342 0 0 -inf
0.0299241 -0.0649874 -0.0462037 0 0 0
0.0369933 -0.0770074 -0.0530675 0 0 -inf
0.0315384 -0.0722186 -0.0428203 0 0 -inf
0.00181898 -0.069144 0.0241077 0 0 -0
0.0329616 -0.0101818 0.003333 0 0 -1.2161e+29
0.032263 0.00809373 0.000517428 0 0 -0
0.0371885 0.0114634 0.00824875 0 0 -0
0.00357608 -0.0346013 0.0379668 0 0 -inf
-0.000825935 -0.0248288 0.0257391 0 0 -0
0.0230853 0.0254698 -0.0390932 0 0 2.8026e-45
0.0245348 0.0187547 -0.0154568 0 0 inf
0.0247813 0.0232497 -0.0176338 0 0 -0
-0.00818754 -0.0613278 0.0300576 0 0 -inf
-0.00547818 -0.038127 -0.00672588 0 0 -inf
-0.00491559 -0.0378188 0.0195745 0 0 3.3627e-22
0.0404315 0.0162745 0.00884489 0 0 2.89368e-33
0.00276824 0.0340281 -0.0237621 0 0 -0
-0.00206152 0.0289641 -0.0390702 0 0 0
0.00358384 0.0335997 -0.0452364 0 0 -inf
0.0276595 0.00366676 0.0311413 0 0 -inf
0.0284967 0.0144397 0.0305072 0 0 0
0.0188029 0.0115092 0.0389749 0 0 -0
-0.00293717 0.0277495 -0.011913 0 0 0
-0.0168193 -0.0452864 0.00782749 0 0 -0
-0.00167278 -0.0258952 -0.00934371 0 0 -0
0.00356978 -0.0126201 -0.0184906 0 0 0
-0.00261369 -0.0284821 -0.0169128 0 0 -inf
0.00014508 -0.0805184 -0.0223701 0 0 0
-0.00181878 -0.0841108 -0.0464082 0 0 -0
0.0434013 -0.0420397 0.0212407 0 0 -inf
0.030762 -0.0141094 0.0310295 0 0 0
0.0384694 -0.0227911 0.0234719 0 0 0
0.0296903 0.0469213 -0.00229955 0 0 0
0.0258248 0.0423934 -0.00995193 0 0 0
0.0371998 0.0231347 -0.0132528 0 0 -0
0.0362552 0.0274249 -0.0117198 0 0 0
0.00702658 -0.0798623 -0.0349368 0 0 -inf
0.00793292 -0.0672082 -0.0146674 0 0 inf
0.0020806 -0.0701161 -0.0206435 0 0 -6.73046e+10
0.0457095 -0.0460808 -0.00029758 0 0 -inf
0.0361926 -0.0571898 -0.00777444 0 0 0
0.0385801 -0.04845 -0.0152086 0 0 inf
0.0231366 -0.0677834 0.0268248 0 0 0
-0.0171559 0.06731 0.064644 0 0 inf
-0.0133773 0.0615624 0.0449276 0 0 0
0.0165915 -0.0171128 -0.0154937 0 0 0
-0.00248815 0.00520863 -0.0142141 0 0 -inf
0.0464047 -0.0388942 0.00776974 0 0 0
-0.00212154 0.0311623 -0.0514563 0 0 inf
0.0046238 0.0316532 -0.0433076 0 0 -inf
0.00794793 -0.0670827 0.0124286 0 0 0
0.00721546 -0.0692593 0.00912695 0 0 -0
-0.0387169 0.0912638 0.0337232 0 0 0
-0.0322341 0.0857827 0.0236993 0 0 -inf
-0.045855 0.0859799 0.0333642 0 0 -0
0.0311646 0.0127365 -0.0664473 0 0 inf
0.0292674 0.00583481 -0.0574193 0 0 -inf
0.0295409 0.0162274 -0.0436621 0 0 -inf
0.0273482 -0.0629188 0.0212034 0 0 -inf
0.0351328 -0.0597851 -0.00140662 0 0 -0
0.0303617 0.0141871 -0.0459216 0 0 -0
0.0267242 0.0202933 -0.0372462 0 0 -inf
0.01241 0.0617353 0.0505332 0 0 -0
0.0206554 0.0559625 0.0421811 0 0 2.03314e+37
0.0205055 0.0599424 0.0377414 0 0 0
-0.00511062 -0.0107265 -0.00401027 0 0 0
-0.012092 -0.0271282 0.00423609 0 0 -inf
-0.0180639 -0.0171736 0.00641474 0 0 inf
0.0193767 0.0178531 0.0487069 0 0 0
0.00725193 0.0473268 0.0591219 0 0 -0
0.00387196 0.0177205 0.0416826 0 0 -inf
0.000137655 -0.0633504 0.0321783 0 0 inf
0.0321122 0.0247283 0.0176991 0 0 2.9229e-13
0.0266344 0.0375945 0.0120597 0 0 -inf
0.0091677 -0.0791376 0.011335 0 0 0
-0.0109975 0.0280538 0.0272761 0 0 -0
-0.0063008 0.0443929 0.0236781 0 0 0
0.000597879 0.0294623 0.0350025 0 0 -0
0.0014113 0.0435229 -0.0613711 0 0 inf
0.00305811 -0.0682226 -0.0196288 0 0 inf
-0.0087334 -0.075523 -0.0153941 0 0 -inf
0.0334165 -0.0633875 -0.011373 0 0 -inf
0.0227838 -0.023707 -0.00286399 0 0 -inf
0.0413045 -0.0358568 0.00343761 0 0 -7.24697e-26
0.0349621 -0.0311389 -0.00013905 0 0 inf
0.00474934 -0.0477431 0.0372223 0 0 8.75415e+11
0.0221739 0.0169115 -0.0442549 0 0 0
-0.0168429 0.0703753 0.0577294 0 0 -0
-0.0159866 0.0622795 0.0740905 0 0 -0.106293
-0.0152244 0.0749962 0.071252 0 0 -0
0.0236859 -0.0657939 -0.0628254 0 0 -0
0.0319365 -0.0600097 -0.0487526 0 0 -0
0.0372298 -0.0598101 -0.062706 0 0 -inf
0.0209243 0.0200689 -0.0814095 0 0 -0
0.0359489 0.0169712 -0.0804632 0 0 -0
0.0246002 0.0199476 -0.0755846 0 0 0
-0.00381018 -0.0143635 0.0162801 0 0 -0
-0.0056699 -0.0284643 0.0218876 0 0 0
-0.0116756 -0.0190186 0.0174591 0 0 0
-0.00143232 -0.0878424 -0.0550373 0 0 0
0.00401159 -0.0846325 -0.0602683 0 0 46501.8
0.0390691 -0.0683905 -0.0662732 0 0 inf
0.0369453 -0.0663617 -0.0746207 0 0 -inf
0.0168956 0.033689 0.0439196 0 0 -0
0.0342089 -0.0289151 0.0159813 0 0 -inf
0.0367397 -0.017521 0.0122422 0 0 -inf
0.0103534 0.0150246 -0.0174263 0 0 -24844.8
0.0062275 0.0252939 -0.015734 0 0 0
-0.0156101 0.0642676 0.0437138 0 0 -0
-0.00282318 0.0677989 0.0335917 0 0 0
-0.0135831 0.0674316 0.0623263 0 0 0
0.0010219 0.0664897 0.0756062 0 0 -0
-0.0109536 0.0392737 -0.00729818 0 0 -inf
-0.015649 0.0320873 0.0141115 0 0 -0
-0.00239651 0.0618593 0.042756 0 0 inf
-0.00432229 0.0659598 0.0353171 0 0 -3617.7
0.0368779 -0.0578721 -0.0272802 0 0 -inf
0.0347403 -0.0723275 -0.0267192 0 0 inf
-0.00719496 0.0952163 0.0453754 0 0 0
-0.00706369 0.0243972 -0.0549222 0 0 -inf
-0.00197931 -0.064847 0.0176397 0 0 -inf
-0.00703388 -0.0513498 -0.0108734 0 0 1.19039e-36
-0.00313622 -0.0689219 -0.0202212 0 0 -inf
0.00544074 0.0282133 -0.0173876 0 0 inf
0.00207597 0.0379163 -0.0158373 0 0 1.10568e+20
0.00642109 0.0393379 -0.00865731 0 0 inf
0.0204738 -0.0208869 0.0313148 0 0 -5.76209e+25
0.0386351 0.0432338 0.00977506 0 0 -2.66606e-05
0.0263535 0.0288119 -0.0806691 0 0 -inf
0.0199724 0.0355914 0.027521 0 0 -0
-0.00570902 0.0353217 -0.0765077 0 0 1.19093e-12
0.0217121 0.0199969 -0.0702563 0 0 -0
-0.0116973 -0.0811818 -0.064424 0 0 inf
-0.00557542 -0.0930692 -0.0784649 0 0 inf
-0.0110881 -0.0894591 -0.0746785 0 0 0
-0.00154442 0.0101645 0.0279446 0 0 0
0.037548 -0.011549 0.0174834 0 0 inf
0.0396545 -0.018341 0.00850538 0 0 -inf
0.0159285 -0.0328562 0.0428694 0 0 inf
0.030794 -0.0698025 -0.0578813 0 0 0
0.0344594 -0.0661764 -0.0666136 0 0 -0
0.0375758 0.0302876 -0.00157677 0 0 0
0.032988 0.0372862 0.0012884 0 0 -0
-0.00602425 0.0435624 0.0250001 0 0 -6.01074e+06
0.000197806 0.0437431 0.0269693 0 0 -0
-0.00238232 0.0311355 0.0314111 0 0 inf
0.0287392 -0.0478013 -0.0149104 0 0 0
0.0329274 0.0219328 -0.0429565 0 0 -inf
0.0341409 0.0171018 -0.0683896 0 0 -0
0.0292781 0.0326566 -0.0106949 0 0 -inf
0.0156412 0.0402955 0.0463776 0 0 -inf
-0.00785947 0.00144181 -0.0105528 0 0 -inf
-0.00637997 0.0521702 0.0527779 0 0 0
-0.00082254 0.0410991 0.0505242 0 0 -0.00839604
0.0309339 -0.0552471 -0.0042475 0 0 0
0.00325957 -0.0285119 -0.0041302 0 0 0
0.00112053 -0.0763277 -0.00392343 0 0 -0
0.00102389 0.0507858 0.0203983 0 0 -inf
0.000218849 0.0414849 -0.0795489 0 0 -5.43928e-41
0.0164172 0.0576408 0.0440928 0 0 0
0.0260425 -0.0400903 -0.000322034 0 0 inf
0.008364 0.0693097 0.0433283 0 0 inf
-0.00139182 0.0760084 0.0620751 0 0 -0
-0.0119573 -0.00134286 0.0162583 0 0 -inf
0.0442128 -0.0689044 -0.0674682 0 0 -0
0.0339385 -0.00731645 -0.0043332 0 0 inf
0.0349966 -0.0121299 -0.00653999 0 0 -0
-0.00339391 -0.044826 0.0326765 0 0 -0
0.0365208 -0.0374923 -0.0099607 0 0 -inf
0.0210353 0.0496131 0.0069543 0 0 inf
0.0394335 0.0143837 -0.0711292 0 0 -0
0.0221376 -0.0667867 0.00698678 0 0 inf
0.022534 0.0299287 -0.00959599 0 0 inf
0.0292179 0.0287354 -0.0227687 0 0 -inf
0.0328662 0.0238927 -0.035218 0 0 -inf
0.0377064 -0.0760334 -0.0596444 0 0 inf
-0.00512722 -0.0885505 -0.0318001 0 0 0
0.0331982 -0.0620574 -0.0621824 0 0 inf
0.0297192 -0.0502501 -0.0735635 0 0 inf
0.0156237 0.0171455 -0.0247006 0 0 -inf
0.0137135 0.00557379 -0.0134373 0 0 -0
-0.00508888 0.0805794 0.0384142 0 0 inf
-0.0113864 -0.0869515 -0.0517733 0 0 0
-0.00739 -0.0832638 -0.0707191 0 0 0
-0.021161 0.0713178 0.0729266 0 0 -inf
0.0299508 -0.0508553 -0.0268289 0 0 -0
-0.0314531 0.0795492 0.041305 0 0 0
0.0412459 -0.061477 -0.0412038 0 0 3.22337e+34
0.0258024 0.0205627 -0.0565937 0 0 inf
-0.00781655 0.0287429 -0.00660483 0 0 -inf
-0.00441221 0.0409632 0.0108939 0 0 -inf
0.0334599 -0.0670255 0.0206339 0 0 0
0.00268016 0.0704618 0.0448426 0 0 -3557.7
0.0368101 -0.0301425 0.035618 0 0 -0
0.0296943 0.0201804 0.00053765 0 0 inf
0.00138674 -0.0784902 -0.0520845 0 0 -inf
0.00748488 -0.0905139 -0.0510353 0 0 4.13356e+24
0.00305062 0.0471224 0.0617755 0 0 -inf
0.042445 -0.0425022 0.0279226 0 0 inf
-0.00716071 -0.068475 -0.0839075 0 0 inf
-0.0104544 0.0684697 0.0700272 0 0 -0
0.023606 0.000767419 -0.0154468 0 0 -0
0.0002672 -0.0820388 -0.0644176 0 0 0
-0.0129893 -0.0813802 -0.0466007 0 0 inf
0.0249259 -0.0679799 -0.0689014 0 0 -0
0.0209419 -0.0613468 -0.0703868 0 0 inf
-0.010629 0.0221778 -0.010016 0 0 -inf
-0.011572 0.0876641 0.0647895 0 0 2.88615e-28
-0.00641046 0.0516622 0.0441709 0 0 0
-0.0355082 0.0830573 0.0368572 0 0 3.70574e-37
0.0239038 -0.0604569 -0.00734597 0 0 0
-0.0015314 0.0267324 -0.0294223 0 0 1.37726e-34
0.0258427 0.00926849 -0.0366634 0 0 -0
0.00113061 0.0805231 0.0782236 0 0 -0
-0.00496988 0.0793752 0.0686445 0 0 -0
-0.00569509 0.0718354 0.0620197 0 0 inf
-0.00468078 -0.00498007 0.00520365 0 0 -0
-0.00638514 0.00582321 -0.000426204 0 0 0
-0.00493839 -0.0712428 -0.00570464 0 0 -inf
-0.00527914 0.060573 0.0568899 0 0 0
-0.00462613 0.0800814 0.0750996 0 0 0
-0.00717188 0.0320119 -0.0404091 0 0 -inf
0.00153177 0.0412236 -0.00656243 0 0 -0
0.0399779 -0.0204137 0.00558944 0 0 inf
0.00490285 -0.0875466 -0.0685436 0 0 2.01332e-19
0.00260337 -0.0650297 0.0350952 0 0 0
0.0254462 0.0191916 -0.0312176 0 0 -inf
-0.0241839 0.0688189 0.0443144 0 0 -inf
0.00108485 0.0769061 0.0521537 0 0 0
-0.00190248 -0.0562443 -0.00415568 0 0 -inf
-0.00908639 0.00222194 0.00649834 0 0 0
-0.00637698 0.0789026 0.0601032 0 0 inf
0.00357779 0.0278317 0.0361979 0 0 inf
0.0079789 0.0377969 0.0287839 0 0 -inf
0.00502692 -0.0773387 -0.0758145 0 0 -0
0.00153195 -0.0869245 -0.0791852 0 0 inf
-0.00747128 -0.0726089 -0.00442188 0 0 -0
-0.01264 0.0281893 -0.0081126 0 0 0
3 0 1 2
3 3 4 5
3 6 7 8
3 9 10 11
3 12 13 14
3 15 16 17
3 18 19 20
3 21 22 23
3 24 25 26
3 27 28 29
3 30 31 32
3 33 34 35
3 36 37 38
3 39 40 41
3 13 42 43
3 2 44 45
3 46 47 48
3 23 49 50
3 51 52 53
3 47 54 55
3 56 57 58
3 59 60 61
3 62 63 64
3 65 66 67
3 9 68 69
3 36 70 71
3 72 73 74
3 75 76 77
3 78 79 80
3 31 81 82
3 83 84 85
3 86 87 88
3 10 89 90
3 3 91 92
3 2 21 22
3 93 94 95
3 20 96 97
3 98 99 100
3 37 38 101
3 102 103 104
3 49 105 106
3 107 108 109
3 22 101 110
3 1 111 112
3 103 104 113
3 114 115 116
3 117 118 119
3 54 55 120
3 50 112 121
3 122 123 124
3 83 125 126
3 127 128 129
3 40 53 130
3 131 132 133
3 134 135 136
3 7 8 42
3 137 138 139
3 19 38 140
3 72 74 103
3 14 141 142
3 123 143 144
3 75 77 145
3 68 146 147
3 70 148 149
3 16 150 151
3 6 151 152
3 153 154 155
3 75 156 157
3 155 158 159
3 160 161 162
3 163 164 165
3 166 167 168
3 36 70 149
3 38 101 169
3 39 170 171
3 30 32 88
3 37 45 172
3 173 174 175
3 35 89 176
3 26 177 178
3 56 57 179
3 180 181 182
3 97 169 183
3 55 68 147
3 59 60 117
3 155 159 184
3 113 170 171
3 185 186 187
3 188 189 190
3 191 192 193
3 194 195 196
3 126 197 198
3 190 199 200
3 119 166 201
3 129 202 203
3 108 204 205
3 142 206 207
3 78 208 209
3 82 210 211
3 51 212 213
3 98 214 215
3 26 85 178
3 7 62 216
3 33 176 217
3 2 22 218
3 0 219 220
3 221 222 223
3 66 117 224
3 39 171 225
3 153 192 226
3 39 170 227
3 115 146 147
3 10 90 228
3 193 226 229
3 230 231 232
3 65 168 233
3 203 234 235
3 97 183 236
3 98 100 215
3 99 237 238
3 131 239 240
3 75 137 181
3 241 242 243
3 46 48 144
3 57 58 244
3 66 86 224
3 184 245 246
3 109 221 247
3 24 26 84
3 166 201 248
3 115 120 205
3 115 116 146
3 75 138 157
3 122 163 249
3 243 250 251
3 214 215 252
3 36 38 140
3 91 124 253
3 50 112 195
3 87 105 106
3 45 172 254
3 171 239 240
3 131 132 239
3 111 112 253
3 51 241 255
3 3 5 91
3 61 104 113
3 46 47 54
3 229 245 246
3 81 173 211
3 10 176 256
3 80 248 257
3 189 190 199
3 113 171 239
3 4 5 258
3 173 175 233
3 13 14 43
3 160 259 260
3 1 111 219
3 125 134 136
3 30 194 261
3 122 164 253
3 199 238 262
3 102 263 264
3 49 105 265
3 122 124 253
3 94 258 266
3 131 240 267
3 9 34 68
3 153 192 268
3 80 167 248
3 60 61 118
3 61 113 170
3 93 180 264
3 59 203 234
3 105 224 236
3 23 110 265
3 92 148 269
3 223 267 270
3 58 188 237
3 159 271 272
3 14 185 187
3 227 248 257
3 199 238 273
3 14 141 185
3 24 197 274
3 237 238 275
3 190 275 276
3 73 277 278
3 15 17 62
3 52 259 279
3 107 109 247
3 232 280 281
3 186 208 282
3 25 135 220
3 106 194 195
3 139 266 283
3 10 176 217
3 52 160 259
3 186 187 282
3 16 206 284
3 247 267 270
3 81 173 233
3 98 214 285
3 71 140 156
3 107 247 272
3 27 29 286
3 31 48 287
3 85 178 254
3 174 211 288
3 18 77 289
3 59 128 129
3 60 117 118
3 63 260 290
3 128 224 291
3 32 67 233
3 74 103 292
3 91 111 253
3 126 293 294
3 1 112 121
3 230 232 281
3 54 120 204
3 31 32 81
3 19 156 289
3 167 168 295
3 96 291 296
3 180 181 266
3 230 281 297
3 51 212 255
3 115 120 147
3 78 167 208
3 153 155 184
3 187 282 298
3 93 143 299
3 230 231 297
3 281 300 301
3 191 193 229
3 200 302 303
3 281 297 300
3 59 61 234
3 9 11 35
3 82 287 304
3 226 229 246
3 189 199 273
3 24 197 301
3 154 155 158
3 159 184 272
3 21 23 50
3 18 77 296
3 170 201 227
3 29 229 286
3 93 94 180
3 188 190 275
3 108 277 278
3 118 119 170
3 75 145 181
3 24 25 301
3 20 38 169
3 32 67 88
3 42 216 305
3 18 19 289
3 212 255 306
3 150 151 307
3 3 4 308
3 47 304 309
3 207 212 306
3 117 119 166
3 0 1 219
3 245 286 310
3 311 312 313
3 141 185 186
3 52 213 279
3 221 247 270
3 261 314 315
3 125 136 316
3 138 139 214
3 14 43 187
3 122 163 164
3 247 271 272
3 114 116 217
3 187 209 312
3 51 52 213
3 56 179 215
3 49 106 195
3 53 130 267
3 198 280 301
3 16 17 151
3 3 92 269
3 113 239 292
3 123 124 143
3 127 291 296
3 5 94 95
3 102 234 235
3 141 142 317
3 311 313 318
3 112 195 196
3 66 166 168
3 8 13 152
3 47 48 287
3 65 66 168
3 280 281 301
3 205 221 222
3 16 150 284
3 55 68 319
3 11 35 90
3 132 239 292
3 89 176 256
3 68 69 319
3 51 288 320
3 102 264 321
3 72 264 299
3 198 232 322
3 109 205 221
3 15 16 279
3 71 157 252
3 133 247 271
3 47 287 304
3 62 64 216
3 93 95 143
3 87 105 224
3 107 184 245
3 169 183 323
3 25 293 301
3 95 124 143
3 86 87 224
3 238 262 302
3 66 117 166
3 120 204 205
3 137 139 266
3 107 310 324
3 201 227 248
3 69 217 319
3 4 244 258
3 210 288 320
3 76 156 289
3 88 106 194
3 22 23 110
3 14 284 325
3 99 100 237
3 168 251 295
3 23 49 265
3 260 313 326
3 132 133 271
3 4 179 308
3 190 200 276
3 85 125 316
3 135 316 327
3 9 34 35
3 15 63 279
3 78 79 209
3 33 116 217
3 44 45 218
3 73 158 159
3 91 95 124
3 37 45 218
3 72 73 278
3 61 102 234
3 163 314 328
3 126 134 293
3 179 215 252
3 74 132 292
3 70 148 269
3 30 261 315
3 123 144 249
3 96 97 291
3 152 284 307
3 5 91 95
3 12 152 284
3 64 260 329
3 229 245 286
3 10 11 228
3 8 13 42
3 61 118 170
3 198 294 322
3 243 251 330
3 242 243 331
3 143 144 278
3 141 250 317
3 143 278 299
3 139 214 283
3 208 251 295
3 92 135 220
3 188 189 285
3 198 232 280
3 259 260 290
3 105 183 236
3 79 80 257
3 58 188 285
3 107 184 272
3 168 233 330
3 300 332 333
3 73 310 324
3 83 84 274
3 178 254 334
3 75 76 156
3 150 284 307
3 55 309 319
3 71 269 308
3 110 265 323
3 6 8 152
3 197 198 301
3 76 77 289
3 141 208 251
3 11 90 228
3 34 68 146
3 214 283 285
3 72 263 264
3 73 132 271
3 77 127 145
3 297 300 332
3 77 127 296
3 149 172 254
3 0 177 220
3 160 260 326
3 153 226 246
3 7 42 216
3 174 175 241
3 166 167 248
3 105 183 265
3 112 164 165
3 25 135 293
3 2 21 121
3 25 177 220
3 114 115 205
3 161 257 326
3 33 35 176
3 114 217 319
3 7 17 62
3 61 102 104
3 122 123 249
3 30 31 315
3 41 161 227
3 46 54 204
3 63 279 290
3 244 283 285
3 70 71 269
3 0 2 334
3 137 181 266
3 194 196 261
3 210 211 288
3 138 157 252
3 149 254 316
3 183 265 323
3 40 130 225
3 39 40 225
3 202 203 235
3 56 58 100
3 43 311 329
3 0 178 334
3 101 110 323
3 250 306 317
3 65 67 233
3 260 313 318
3 222 223 320
3 242 306 331
3 174 241 288
3 20 97 169
3 43 187 312
3 32 81 233
3 92 135 327
3 125 126 134
3 73 277 324
3 28 153 154
3 145 181 202
3 98 99 273
3 207 306 317
3 300 322 333
3 210 222 320
3 36 149 172
3 48 314 328
3 83 85 125
3 22 101 218
3 28 191 229
3 114 205 222
3 221 223 270
3 49 50 195
3 131 133 247
3 79 209 312
3 63 64 260
3 114 309 335
3 67 86 88
3 127 128 291
3 47 55 309
3 51 241 288
3 71 252 308
3 5 94 258
3 103 113 292
3 165 196 261
3 43 311 312
3 107 108 277
3 131 247 267
3 210 304 335
3 244 258 266
3 179 252 308
3 231 297 332
3 73 159 271
3 161 227 257
3 242 255 306
3 28 29 229
3 117 128 224
3 51 223 320
3 180 182 321
3 12 13 152
3 16 207 279
3 46 144 204
3 79 312 313
3 26 84 85
3 43 305 329
3 293 294 322
3 114 210 335
3 91 92 219
3 191 192 268
3 10 89 256
3 33 116 146
3 98 189 273
3 66 67 86
3 275 276 303
3 127 145 202
3 107 245 310
3 231 332 333
3 87 88 106
3 31 82 287
3 52 160 162
3 18 96 296
3 57 179 244
3 175 233 330
3 135 136 316
3 64 216 329
3 206 284 325
3 148 149 327
3 73 74 132
3 200 262 302
3 260 318 329
3 12 14 284
3 48 249 328
3 130 171 225
3 72 278 299
3 216 305 329
3 141 250 251
3 224 236 291
3 92 219 220
3 48 314 315
3 14 142 325
3 119 170 201
3 41 161 162
3 107 277 324
3 244 266 283
3 238 275 303
3 30 88 194
3 71 156 157
3 127 129 202
3 151 152 307
3 36 37 172
3 40 41 162
3 142 207 317
3 126 198 294
3 24 84 274
3 42 43 305
3 28 191 268
3 27 154 158
3 31 48 315
3 142 206 325
3 33 34 146
3 293 300 301
3 101 169 323
3 173 174 211
3 93 264 299
3 82 210 304
3 59 117 128
3 79 257 326
3 112 164 253
3 48 144 249
3 78 80 167
3 58 244 285
3 114 210 222
3 108 109 205
3 6 17 151
3 175 241 243
3 85 254 316
3 102 103 263
3 187 209 298
3 112 165 196
3 99 238 273
3 241 242 255
3 207 212 213
3 59 129 203
3 79 313 326
3 200 276 303
3 56 100 215
3 35 89 90
3 73 158 310
3 39 41 227
3 165 261 314
3 45 254 334
3 15 62 63
3 208 282 298
3 40 52 162
3 208 209 298
3 199 200 262
3 83 126 274
3 102 235 321
3 27 28 154
3 232 322 333
3 58 100 237
3 9 10 69
3 144 204 278
3 158 286 310
3 238 302 303
3 182 202 235
3 19 20 38
3 175 243 330
3 160 161 326
3 1 2 121
3 259 279 290
3 192 193 226
3 21 50 121
3 108 204 278
3 36 71 140
3 16 206 207
3 55 120 147
3 163 249 328
3 311 318 329
3 18 20 96
3 75 137 138
3 51 53 223
3 182 235 321
3 141 186 208
3 250 306 331
3 28 153 268
3 168 251 330
3 3 269 308
3 72 103 263
3 2 44 218
3 10 69 217
3 53 223 267
3 92 148 327
3 4 179 244
3 91 111 219
3 293 300 322
3 37 101 218
3 149 316 327
3 40 52 53
3 94 180 266
3 167 208 295
3 6 7 17
3 153 184 246
3 304 309 335
3 134 135 293
3 126 197 274
3 27 158 286
3 130 240 267
3 98 189 285
3 163 165 314
3 180 264 321
3 188 237 275
3 81 82 211
3 138 214 252
3 0 177 178
3 25 26 177
3 97 236 291
3 243 250 331
3 181 182 202
3 114 309 319
3 130 171 240
3 207 213 279
3 2 45 334
3 231 232 333
3 19 140 156
