ply
format ascii 1.0
element vertex 54
property float x
property float y
property float z
element face 104
property list uchar int vertex_indices
end_header
0.37939 0.60236 1.93415
0.20096 0.75 1.5
0.43934 0.43934 1.5
0.05111 1.11177 1.5
0 1.5 1.5
0.0454583 1.5 1.1547
0.0476756 1.58531 1.22317
0.678258 0.954732 2.62471
1.00556 0.627431 2.59888
0.342874 0.632575 1.1547
0.391659 0.568998 1.1547
1.61752 0.0154712 1.5
1.58188 0.05111 1.80635
1.5 0.05111 1.88823
1.09911 0.11127 1.90089
1.5 0.13299 2.08591
1.44446 0.188533 2.20163
1.5 0 1.5
1.54293 0.05111 1.1547
1.58188 0.05111 1.19365
0.67842 0.55132 2.32158
1.06768 0.565307 2.58056
1.03473 0.59826 2.59658
1.57693 0.0560566 1.1547
1.08111 0.29386 2.28725
0.14496 1.02165 1.93018
0.0570621 1.57593 1.1547
0.230578 1.40241 2.26332
0.399359 1.23363 2.43957
0.05111 1.5 1.88823
0.719294 0.277539 1.1547
0.664718 0.319418 1.1547
0.36046 0.97447 2.32175
0.193837 1.43915 2.20932
0.13299 1.5 2.08591
0.05111 1.54293 1.1547
0.75 0.20096 1.5
0.71275 0.29386 1.91889
0.65852 0.97447 2.61981
1.5712 0.0617941 1.89048
1.45707 0.05111 1.1547
1.10087 0.102928 1.1547
0.05111 1.58188 1.19365
0.15601 0.96805 1.1547
0.05111 1.58188 1.80635
1.11177 0.05111 1.5
1.0507 0.123707 1.1547
0.126442 1.03943 1.1547
0.0154712 1.61752 1.5
1.5 0.0454583 1.1547
1.41266 0.22033 2.25777
0.0645396 1.56845 1.89423
0.05111 1.45707 1.1547
1.27262 0.360371 2.41225
3 0 1 2
3 3 4 5
3 6 7 8
3 2 9 10
3 11 12 13
3 14 15 16
3 17 18 19
3 20 21 22
3 18 19 23
3 20 21 24
3 1 3 25
3 15 16 26
3 6 27 28
3 3 25 29
3 23 30 31
3 25 27 32
3 11 13 17
3 0 25 32
3 25 33 34
3 5 23 35
3 7 8 22
3 30 31 36
3 14 36 37
3 6 28 38
3 15 26 39
3 13 14 15
3 23 40 41
3 6 26 42
3 19 23 26
3 10 23 31
3 6 8 26
3 11 17 19
3 1 9 43
3 4 29 44
3 13 14 45
3 7 32 38
3 7 20 22
3 6 7 38
3 12 26 39
3 1 2 9
3 23 41 46
3 1 43 47
3 8 22 26
3 14 24 37
3 9 10 23
3 6 44 48
3 41 45 46
3 18 23 49
3 3 4 29
3 25 27 33
3 0 2 37
3 20 24 37
3 16 24 50
3 11 12 26
3 17 40 45
3 4 5 48
3 17 40 49
3 21 22 26
3 29 34 51
3 6 44 51
3 9 23 43
3 2 31 36
3 23 40 49
3 14 16 24
3 7 20 32
3 6 42 48
3 11 19 26
3 3 5 52
3 30 36 46
3 0 1 25
3 21 26 53
3 6 34 51
3 23 43 47
3 26 35 42
3 29 44 51
3 28 32 38
3 23 26 35
3 27 28 32
3 0 20 32
3 1 3 47
3 35 42 48
3 3 47 52
3 25 29 34
3 2 36 37
3 26 50 53
3 0 20 37
3 23 47 52
3 6 33 34
3 21 24 53
3 13 17 45
3 36 45 46
3 4 44 48
3 5 35 48
3 2 10 31
3 14 36 45
3 24 50 53
3 13 15 39
3 6 27 33
3 5 23 52
3 16 26 50
3 12 13 39
3 17 18 49
3 23 30 46
3 40 41 45
