ply
format ascii 1.0
element vertex 60
property float x
property float y
property float z
element face 116
property list uchar int vertex_indices
end_header
46.034 117.265 -51.1509
46.034 117.265 -117.265
163.299 117.265 2.97573e-06
46.034 117.265 117.265
0 117.265 117.265
0 117.265 163.299
-46.034 117.265 -117.265
0 117.265 -163.299
-163.299 117.265 2.97573e-06
46.034 -117.265 117.265
0 -117.265 163.299
163.299 -117.265 -2.97573e-06
-115.165 -48.1344 -48.1344
-163.299 0 -4.26326e-14
-163.299 -117.265 -2.97573e-06
-163.299 0 117.265
-46.034 -117.265 117.265
-46.034 -51.151 117.265
163.299 0 117.265
115.165 -48.1344 48.1344
46.034 -117.265 -117.265
0 -117.265 -163.299
-46.034 117.265 117.265
46.034 117.265 117.265
0 163.299 117.265
46.034 -117.265 51.151
46.034 -117.265 117.265
-163.299 0 -117.265
-115.165 48.1344 -48.1344
-46.034 117.265 -117.265
0 163.299 -117.265
0 -117.265 -117.265
0 -163.299 -117.265
163.299 -1.42109e-14 -5.0654e-14
163.299 0 -117.265
-46.034 -117.265 -117.265
-46.034 -117.265 117.265
163.299 -1.42109e-14 -5.0654e-14
115.165 48.1344 48.1344
0 -117.265 -117.265
-46.034 -117.265 -117.265
46.034 -51.151 -117.265
46.034 117.265 -117.265
46.034 51.151 117.265
46.034 -117.265 -117.265
0 -163.299 117.265
-46.034 117.265 51.151
-46.034 117.265 117.265
0 117.265 117.265
0 117.265 -117.265
0 -117.265 117.265
-46.034 -117.265 -51.151
-115.165 48.1344 48.1344
-163.299 0 -7.10543e-14
-115.165 -48.1344 48.1344
115.165 -48.1344 -48.1344
-46.034 51.1509 -117.265
0 117.265 -117.265
0 -117.265 117.265
115.165 48.1344 -48.1344
3 0 1 2
3 3 4 5
3 6 7 8
3 9 10 11
3 12 13 14
3 15 16 17
3 9 18 19
3 11 20 21
3 10 17 22
3 18 23 24
3 20 25 26
3 27 28 29
3 1 2 7
3 23 24 30
3 20 31 32
3 18 33 34
3 14 21 35
3 6 24 30
3 10 14 36
3 18 37 38
3 21 39 40
3 34 41 42
3 5 9 43
3 11 33 44
3 21 41 42
3 8 28 29
3 32 36 45
3 9 11 19
3 0 1 30
3 7 21 35
3 24 46 47
3 0 23 30
3 3 24 48
3 21 41 44
3 15 17 22
3 1 7 49
3 10 26 50
3 32 40 51
3 11 19 33
3 18 23 38
3 14 40 51
3 2 23 37
3 6 30 49
3 12 27 35
3 6 24 46
3 2 7 42
3 10 11 26
3 8 52 53
3 20 25 45
3 14 36 51
3 15 16 54
3 33 44 55
3 8 46 47
3 11 20 26
3 11 21 44
3 7 29 56
3 7 8 29
3 34 41 44
3 1 49 57
3 30 49 57
3 15 24 47
3 4 22 24
3 10 50 58
3 2 37 59
3 34 42 59
3 8 13 28
3 32 36 51
3 4 24 48
3 10 16 17
3 7 35 56
3 36 50 58
3 33 34 55
3 14 16 54
3 3 5 43
3 15 52 53
3 20 21 31
3 18 19 33
3 36 45 50
3 27 29 56
3 10 36 58
3 8 47 52
3 3 9 43
3 23 37 38
3 14 53 54
3 2 42 59
3 18 34 37
3 21 31 39
3 6 7 49
3 15 47 52
3 3 18 24
3 14 21 40
3 8 13 14
3 31 32 39
3 15 22 24
3 34 44 55
3 3 9 18
3 5 9 10
3 5 10 22
3 13 27 28
3 15 53 54
3 32 39 40
3 8 14 53
3 27 35 56
3 3 4 48
3 20 32 45
3 0 2 23
3 4 5 22
3 7 21 42
3 25 26 45
3 12 14 35
3 1 30 57
3 12 13 27
3 6 8 46
3 26 45 50
3 10 14 16
3 34 37 59
