ply
format ascii 1.0
element vertex 48
property float x
property float y
property float z
element face 92
property list uchar int vertex_indices
end_header
0 117.265 -163.299
0 117.265 -117.265
0 117.265 -117.265
163.299 48 -117.265
0 211.299 -117.265
94.034 117.265 -69.265
-163.299 48 -117.265
-115.165 96.1344 -48.1344
-94.034 117.265 -69.265
0 117.265 117.265
46.034 117.265 117.265
0 117.265 163.299
-163.299 117.265 2.97573e-06
-163.299 48 1.21805e-06
46.034 117.265 -117.265
0 -117.265 -163.299
94.034 117.265 69.265
0 211.299 117.265
163.299 48 117.265
-46.034 117.265 117.265
0 -117.265 163.299
163.299 117.265 2.97573e-06
94.034 117.265 17.7866
46.034 -69.265 117.265
46.034 51.151 117.265
163.299 48 1.21805e-06
-46.034 -69.265 -117.265
-163.299 -117.265 -2.97573e-06
115.165 96.1344 48.1344
-134.867 76.4316 28.4316
-94.034 117.265 69.265
-46.034 117.265 -117.265
-46.034 51.1509 -117.265
0 117.265 117.265
134.867 76.4316 -28.4316
46.034 -69.265 -117.265
46.034 -51.151 -117.265
-163.299 48 1.21805e-06
-115.165 -0.134395 48.1344
-163.299 48 117.265
-95.4618 -19.8372 -67.8372
95.4618 -19.8372 67.8372
163.299 48 1.21805e-06
115.165 -0.134387 -48.1344
-46.034 -69.265 117.265
-46.034 -51.151 117.265
163.299 -117.265 -2.97573e-06
-94.034 117.265 -17.7866
3 0 1 2
3 3 4 5
3 6 7 8
3 9 10 11
3 7 12 13
3 0 14 15
3 16 17 18
3 11 19 20
3 16 21 22
3 20 23 24
3 4 8 17
3 16 21 25
3 15 26 27
3 16 25 28
3 0 2 14
3 12 29 30
3 2 4 14
3 6 31 32
3 9 11 33
3 5 21 34
3 15 20 27
3 3 35 36
3 37 38 39
3 7 8 12
3 5 21 22
3 0 1 31
3 9 17 33
3 1 4 31
3 0 15 26
3 17 19 39
3 3 18 25
3 11 19 33
3 10 23 24
3 6 26 40
3 18 41 42
3 18 23 41
3 10 17 18
3 3 35 43
3 3 4 14
3 21 25 34
3 3 14 36
3 0 26 32
3 14 15 36
3 20 27 37
3 20 38 44
3 20 23 41
3 3 18 42
3 39 44 45
3 12 27 37
3 15 35 36
3 15 42 43
3 16 18 28
3 3 42 43
3 9 10 17
3 20 41 46
3 3 25 34
3 29 37 39
3 4 5 22
3 26 27 40
3 15 20 46
3 1 2 4
3 17 19 33
3 6 26 32
3 41 42 46
3 0 31 32
3 12 29 37
3 8 17 47
3 19 39 45
3 10 18 23
3 13 27 40
3 4 16 22
3 18 25 28
3 29 30 39
3 19 20 45
3 12 13 27
3 8 12 30
3 4 16 17
3 11 20 24
3 20 44 45
3 6 7 13
3 15 35 43
3 8 30 47
3 17 30 39
3 10 11 24
3 17 30 47
3 4 6 8
3 38 39 44
3 6 13 40
3 4 6 31
3 3 5 34
3 15 42 46
3 20 37 38
