ply
format ascii 1.0
element vertex 336
property float x
property float y
property float z
element face 668
property list uchar int vertex_indices
end_header
0.037147 -0.0600862 -0.00594944
0.0307411 -0.0597671 -0.00936561
0.0316061 -0.0713652 0.0107115
0.00555317 0.0338561 -0.0144713
0.0205445 0.0292823 -0.01665
0.00561978 0.0273488 -0.0169303
-0.0164728 0.0803267 0.0397947
-0.0246602 0.0779167 0.0391084
-0.0105415 0.0722571 0.0385831
0.0223294 0.00618142 0.0270658
0.0165353 0.00152003 0.028466
0.0149189 0.0210812 0.0406455
0.028579 0.032013 -0.0160537
0.0292753 0.0248505 -0.0252506
0.0326979 0.0277499 -0.0136684
-0.00933899 0.0282047 -0.0116054
-0.00998156 0.0234008 -0.0095275
-0.00446118 0.0224091 -0.0140434
-0.0139984 0.0871416 0.0463454
-0.00711988 0.0838715 0.0507907
-0.0148492 0.0870705 0.0527327
0.010653 -0.0292802 -0.0126164
0.023791 -0.0178514 -0.0152973
0.00965552 -0.01494 -0.0185335
0.00385739 -0.0346149 0.0356436
0.0212135 -0.0161618 0.0303216
0.00961649 -0.0211106 0.0312691
0.0229621 0.0167126 -0.0282691
0.0226599 0.0234445 -0.0366856
0.0228428 0.0141125 -0.0368613
0.000841112 -0.0572974 0.0331504
0.0065642 -0.0453455 0.0369626
0.0097224 -0.058515 0.0350216
-0.00492225 -0.0807671 -0.0444566
5.1615e-05 -0.0818856 -0.045145
-0.00427899 -0.0709632 -0.0282764
0.0261709 0.0174274 -0.0494893
0.0300769 0.0186819 -0.0496992
0.00937963 -0.00980328 0.0287907
0.0387733 -0.0664563 -0.074341
0.0335944 -0.0683374 -0.0672494
0.0332352 -0.0696968 -0.074799
0.00125345 -0.0233577 -0.0130152
0.00678763 0.0143243 -0.0176195
0.000862599 0.0223965 -0.0188979
0.0350374 -0.0408772 -0.00653666
0.0378672 -0.0477273 -0.00715121
0.0392883 -0.0504258 -0.0165821
0.0334269 -0.0737417 -0.0604388
0.0309928 -0.0675729 -0.0430398
0.0301267 -0.0724336 -0.0604862
0.0214382 0.0352402 0.0360703
0.0166629 0.0272649 0.0430675
0.0141929 0.0411395 0.0576034
-0.00749628 0.0297439 -0.0410567
-0.00276125 0.0356383 -0.0533352
-0.00452534 0.0326131 -0.0555264
0.0288488 -0.0454322 -0.0159589
0.0283405 -0.0410772 -0.0043668
0.0253983 -0.0512404 -0.00441911
-0.00765438 0.0438734 0.00791424
-0.00902794 0.0364972 -0.00292652
-0.00164156 0.0431073 -0.00422252
0.0420629 -0.0585142 0.0111603
0.0331381 -0.0699652 0.0177658
0.03865 -0.0605397 0.0233
0.0314347 -0.0548238 -0.0744187
0.0340751 -0.0627965 -0.0644453
0.0386377 -0.058991 -0.0744717
-0.0085072 -0.0667531 0.014577
-0.0112194 -0.0535824 0.0215666
-0.00621235 -0.0602939 0.0262696
-0.0250288 0.0679939 0.047455
-0.0253787 0.069727 0.0620826
-0.0323086 0.0781401 0.0399436
-0.0063639 -0.0126881 0.0209196
0.00177787 -0.0226107 0.0281753
-8.93664e-06 0.0017924 0.0236409
0.00999205 0.0221921 0.0415557
0.00304194 0.047357 0.0618882
0.000435016 0.0448344 0.0518541
-0.00637559 -0.0352418 0.0286018
-0.0032511 -0.0447547 0.0325946
-0.00155524 0.0762409 0.0623957
-0.00229735 0.0768197 0.0587838
0.00989378 0.0665558 0.0559727
0.03186 0.0238672 -0.0133149
0.0290515 -0.0603083 -0.0134453
0.025684 -0.0599346 -0.00539231
0.00213713 0.0309168 -0.0630034
-0.0049476 0.0294777 -0.0637631
0.001501 0.0346312 -0.066487
0.00390055 -0.0692306 -0.0104035
-0.00239125 -0.0754076 -0.0163156
0.00231037 -0.0824099 -0.0223037
-0.00416941 -0.0585635 -0.00798139
-0.000459732 -0.0644376 -0.0187098
-0.00489651 0.0803229 0.0416867
0.0038904 0.058497 0.0700365
0.00795984 0.066642 0.0639126
-0.00236421 0.0681441 0.07197
0.00267042 0.0337675 -0.0367394
0.000486346 0.0348159 -0.0532638
-0.00309445 -0.0688917 0.00488887
-0.000486695 -0.0738354 0.00327896
-0.00147832 -0.0706675 0.0171718
0.032848 0.0198305 -0.0389855
0.0291402 0.0119322 -0.0453943
0.0272885 0.0166296 -0.01925
0.00221208 -0.0392103 -0.00185274
0.00459015 -0.0747544 0.0176773
0.0208352 0.00536526 -0.0156814
0.0141295 0.00581433 -0.0187319
0.0324026 0.00940663 0.0138669
0.039398 -0.00984027 0.0123339
0.0388539 -0.00695123 0.00272419
-0.0113146 -0.00375619 0.00504976
-0.00781158 0.0038771 -0.00124161
-0.0113248 -0.0121861 -0.0021861
0.000176714 -0.0859177 -0.0435256
0.00353849 -0.0762111 -0.0315539
0.0328749 -0.0662747 -0.0250612
0.0336654 0.0189834 -0.00342126
0.0263481 0.0144917 -0.00543817
0.016286 -0.0622391 0.00130491
0.0123313 -0.0672649 0.00526136
0.0152067 -0.0687282 0.0103019
-0.00680815 0.0102531 0.0101205
-0.0107621 -0.00763952 0.0142352
-0.00535471 0.00733372 0.0176978
-0.000466456 -0.00966883 -0.01595
0.00456524 0.00556669 -0.0182759
-0.00580563 -0.00362627 -0.00963022
0.030629 -0.0469395 0.0357568
0.0236178 -0.048004 0.0374424
0.0312512 -0.0342456 0.0351295
-0.0439289 0.0867771 0.0392655
-0.04049 0.0822595 0.0367102
0.0127979 -0.0413704 -0.00201951
-0.0285731 0.0739857 0.0511276
0.0189215 -0.0333988 -0.00867918
-0.00963772 0.0837792 0.0648069
0.0269393 0.0150379 -0.0664253
0.0261408 0.0135827 -0.0474646
-0.00708498 0.035645 -0.076384
-0.00856625 0.0434884 -0.0762177
-0.00633423 0.0342166 -0.0686527
-0.0277699 0.0857627 0.0527101
-0.0340305 0.0836144 0.0500669
-0.0383129 0.0911687 0.0413931
0.0316906 0.0295105 0.0235888
0.0272105 0.019936 0.0297617
0.00213292 -0.0889291 -0.0584181
-0.003482 -0.0933859 -0.0598733
0.00212298 -0.0848799 -0.0648613
0.00468408 0.0252887 0.0373779
0.00249255 0.0329499 0.0349216
-0.00227882 0.0451269 0.0292099
0.00117508 0.0400195 0.0354117
-0.00228374 0.049497 0.0500263
-0.00665132 0.0622728 0.0499775
-0.0140107 0.0651606 0.0606541
0.0206567 -0.00604546 -0.017479
0.0349592 -0.0494446 -0.0221675
0.0368713 -0.059171 -0.0300069
-0.013664 0.0656018 0.0692055
-0.0051501 -0.0622591 -0.0206167
0.0072709 -0.0556418 -0.00605171
-0.00729697 -0.0855906 -0.0568575
-0.0051127 -0.0877595 -0.0659067
-0.00139974 0.07361 0.047381
0.00406107 0.0658623 0.0451089
0.0225757 -0.0356195 0.0371011
0.0151653 0.0554461 0.0554686
0.0120902 0.0493568 0.0630387
0.0304225 -0.0638611 -0.0447781
0.0353108 -0.0594558 -0.0389897
0.0280342 -0.0659887 -0.0598269
0.0289873 0.0259382 -0.0346616
-0.00205948 0.0175462 0.0288022
0.00231946 -0.0796361 -0.0754205
0.00279676 -0.0872411 -0.0750802
-0.00123242 -0.0821103 -0.0652388
0.0243597 0.0434325 0.0284279
0.0168152 0.0548725 0.048488
-0.00438895 -0.0843058 -0.0328393
-0.00282899 -0.0752137 -0.0235524
-0.00483974 -0.0833296 -0.0230918
-0.000796584 -0.0731791 -0.00781713
-0.00967536 -0.0691511 -0.01505
-0.00728251 -0.0698722 -0.00667002
0.0405627 -0.0548716 -0.000528401
-0.0349037 0.0834547 0.0319089
-0.00407031 0.0228175 -0.03633
-0.00439201 0.0304793 -0.0270066
-0.0356667 0.0928284 0.0371857
-0.00237033 -0.0890111 -0.0495745
0.0416803 -0.0520478 0.020934
0.000920448 0.0353865 -0.076468
0.00022992 0.0300818 -0.0526309
-0.0030262 0.0274695 -0.0545125
0.0347514 -0.0107743 -0.00799212
0.0329833 0.000636836 -0.00549023
-1.13362e-05 0.00962804 0.0256944
-0.00806233 0.0198546 0.0184327
0.0387348 -0.0334133 0.0267645
0.0422732 -0.0462701 0.0104501
-0.00567224 -0.0756535 -0.076015
0.0383909 -0.044427 0.0304681
0.00949604 -0.0715867 0.00214176
0.00692461 -0.0747908 0.00970452
-0.00892408 -0.0648333 -0.0193411
-0.00858304 -0.0559481 -0.00661038
0.00973032 0.0642815 0.0499868
0.0305309 0.0166947 -0.0649744
0.0308284 0.0228811 -0.0747796
0.0346352 0.0141748 -0.0644617
-0.0273304 0.0878713 0.046921
-0.00796175 0.0387584 0.0198771
-0.00344061 0.0428009 0.0221981
-0.00275576 0.0308705 0.0314332
0.00884111 0.0446635 0.0628965
-0.012986 -0.0159195 0.00791421
-0.00787817 -0.0357886 0.0150293
-0.0112843 -0.0248503 0.00308164
-0.0130087 -0.0501702 0.00343156
-0.0125753 -0.0603538 0.00588301
-0.0105785 -0.0655663 -0.00467553
-0.000917401 0.0354822 -0.0269987
0.00391744 0.0292689 -0.0331822
-0.00145681 0.0391315 -0.0653253
-0.0241074 0.0871633 0.0400215
0.0320301 0.012272 0.00743708
-0.00810998 -0.0180182 -0.00834222
-0.00688433 0.0163494 0.0153941
0.0029805 0.0168908 -0.0114506
-0.00359723 0.0214179 -0.018411
0.0406871 -0.0383219 0.00225711
-0.00965423 -0.02345 0.0172611
-0.011132 0.0337438 0.00818817
0.0372807 -0.0565612 -0.00933113
0.0289379 0.0457199 0.0129892
0.0217298 0.0481957 0.0218795
0.0269241 0.04613 0.00505724
0.0311512 0.0405815 0.0221231
0.0404114 -0.0222637 0.00921738
0.037687 -0.0325542 0.0157386
0.0395461 -0.0203335 0.0168978
0.0288561 -0.065611 -0.0270528
-0.0142128 0.0784423 0.0701388
-0.00889898 0.0812086 0.0743073
0.00308401 -0.0698169 0.0270499
-0.00464725 0.0579358 0.0501509
0.00836641 0.00123864 0.0283913
0.00797349 0.0135147 0.0359381
-0.00710968 0.087078 0.0745313
-0.00234166 0.0367201 -0.0153604
0.00842211 0.0406202 -0.00733508
0.0261097 -0.0608312 0.033613
-0.0149174 0.0730407 0.0716106
-0.00802536 0.0779806 0.0700702
0.0200484 0.0173669 -0.0188725
0.0338822 0.00823789 -0.058883
0.0300119 0.010436 -0.0670732
0.0373964 -0.0702517 -0.0598214
0.0337683 -0.0680057 -0.0399324
-0.0066707 0.0644893 0.0390254
0.0151192 -0.0713143 0.0189655
-0.0045753 0.0139854 0.000799875
0.0269342 0.0106726 -0.0760597
0.021448 0.0411642 -0.00901896
-0.00999155 -0.0422127 0.0228577
-0.00484366 -0.0279686 0.0233447
0.0315093 0.0355883 -0.00863185
-0.00908889 0.0324502 -0.0143569
0.029939 -0.0225902 0.0289264
0.0049064 0.0486271 0.0157971
0.0299563 0.0131988 -0.000607411
0.0347569 0.0243433 0.0104483
0.0184813 0.0247911 -0.0178238
0.0188504 0.0452957 0.00183969
-0.00854253 -0.0891875 -0.0760151
0.00165671 0.0484882 0.0242904
0.0261475 0.0095996 -0.0609665
0.0341791 -0.0312597 0.00204979
0.0388898 -0.0198725 0.000467009
0.0285076 -0.0305717 -0.00630485
-0.00638884 -0.0720266 -0.0244358
-0.0168721 0.089049 0.0600446
-0.00369431 -0.051215 -0.00566044
0.034092 0.0101258 -0.0729844
0.0366891 0.0170681 -0.0752245
-0.00214877 0.0468598 -0.0764624
0.00256403 0.0421986 -0.0759468
0.0364206 -0.0635796 -0.0510231
0.0289006 -0.0647477 -0.0658553
0.0261322 -0.0653735 -0.0751226
-0.0125359 0.029237 -0.00127669
0.0167996 0.0576117 0.0394482
0.00409466 0.0636757 0.0398506
0.0371524 -0.0563564 0.0296778
0.0260704 -0.0565949 -0.0290357
0.00347327 -0.0694297 -0.0189781
-0.0164652 0.064274 0.041459
0.0339192 0.0383084 0.00844285
-0.0140177 0.061735 0.0479027
0.019593 0.0200256 0.036296
0.0349872 -0.0261729 0.0250672
-0.0362262 0.0887932 0.0312964
-0.00747774 -0.0795691 -0.0337514
0.0299313 0.00612019 -0.0598084
-0.00928423 0.0282632 0.0206122
0.0358412 -0.0106995 0.0218221
-0.00691537 -0.030783 -0.00258691
-0.0107249 0.0686214 0.0709511
-0.00238339 0.058404 0.0388491
-0.000580487 0.0624959 0.0389095
-0.0208541 0.0674462 0.0771516
0.0366462 -0.0651704 -0.0651896
0.0293407 -0.0668412 0.0276774
0.0134069 -0.0688606 0.0282848
-0.0115267 -0.0442742 0.000370352
0.0240896 0.0197448 -0.075713
0.0246697 -0.0709101 0.0228984
0.0011651 0.025234 -0.0395757
0.0137543 0.0488738 0.0172362
-0.0202288 0.0652576 0.0690395
0.0170834 -0.0545246 -0.00422071
-0.00369962 -0.0377321 0.000414064
0.0299544 0.0383025 -0.00235386
0.0296973 0.00744104 0.0202055
0.0311626 0.0148726 -0.0466281
-0.0197476 0.0686038 0.0640867
-0.00815863 -0.0814371 -0.0711336
0.0364736 0.0297088 -0.000673877
-0.00460107 -0.0818466 -0.0646916
3 0 1 2
3 3 4 5
3 6 7 8
3 9 10 11
3 12 13 14
3 15 16 17
3 18 19 20
3 21 22 23
3 24 25 26
3 27 28 29
3 30 31 32
3 33 34 35
3 28 36 37
3 25 26 38
3 39 40 41
3 21 23 42
3 5 43 44
3 45 46 47
3 48 49 50
3 51 52 53
3 54 55 56
3 57 58 59
3 60 61 62
3 63 64 65
3 66 67 68
3 69 70 71
3 72 73 74
3 75 76 77
3 78 79 80
3 70 81 82
3 83 84 85
3 13 14 86
3 59 87 88
3 89 90 91
3 92 93 94
3 92 95 96
3 6 8 97
3 98 99 100
3 55 101 102
3 103 104 105
3 106 107 108
3 21 42 109
3 104 105 110
3 108 111 112
3 113 114 115
3 116 117 118
3 34 119 120
3 1 87 121
3 86 122 123
3 124 125 126
3 127 128 129
3 130 131 132
3 133 134 135
3 74 136 137
3 21 109 138
3 74 136 139
3 21 138 140
3 19 84 141
3 36 142 143
3 144 145 146
3 147 148 149
3 113 150 151
3 152 153 154
3 80 155 156
3 156 157 158
3 23 112 131
3 159 160 161
3 23 112 162
3 47 163 164
3 79 80 165
3 96 166 167
3 153 168 169
3 84 170 171
3 24 31 172
3 99 173 174
3 175 176 177
3 28 37 178
3 78 155 179
3 180 181 182
3 51 183 184
3 27 29 108
3 185 186 187
3 188 189 190
3 63 64 191
3 74 137 192
3 54 193 194
3 2 88 124
3 30 71 82
3 136 149 195
3 33 153 196
3 63 65 197
3 80 161 165
3 144 146 198
3 89 199 200
3 163 164 176
3 111 201 202
3 179 203 204
3 13 86 108
3 197 205 206
3 180 182 207
3 197 205 208
3 188 209 210
3 166 211 212
3 84 85 213
3 214 215 216
3 20 147 217
3 218 219 220
3 11 53 221
3 24 31 82
3 222 223 224
3 34 35 96
3 225 226 227
3 35 166 211
3 5 228 229
3 85 173 184
3 91 102 230
3 54 55 228
3 18 217 231
3 113 115 232
3 130 132 233
3 127 129 234
3 1 2 88
3 43 235 236
3 8 97 170
3 57 163 176
3 2 124 126
3 190 212 227
3 45 46 237
3 75 128 238
3 60 61 239
3 0 1 240
3 92 188 209
3 30 31 82
3 241 242 243
3 241 242 244
3 245 246 247
3 49 175 248
3 141 249 250
3 189 190 212
3 30 71 251
3 159 160 252
3 179 253 254
3 83 84 255
3 62 256 257
3 157 158 252
3 60 218 219
3 32 134 258
3 249 259 260
3 95 96 167
3 94 119 120
3 27 108 261
3 216 262 263
3 206 237 246
3 48 264 265
3 160 252 266
3 154 181 182
3 61 62 256
3 209 210 267
3 116 117 268
3 93 94 187
3 69 105 251
3 142 263 269
3 5 228 256
3 3 257 270
3 81 271 272
3 12 14 273
3 99 100 260
3 19 84 97
3 194 228 274
3 38 77 253
3 135 205 275
3 17 193 194
3 60 219 276
3 95 125 209
3 58 138 140
3 122 277 278
3 128 222 238
3 249 250 260
3 28 261 279
3 12 273 280
3 15 61 274
3 45 57 58
3 1 87 88
3 180 207 281
3 13 106 108
3 51 173 184
3 157 252 282
3 142 263 283
3 9 25 275
3 62 257 276
3 284 285 286
3 136 139 148
3 7 8 266
3 43 131 235
3 83 99 260
3 93 186 287
3 141 249 288
3 34 152 154
3 61 228 274
3 109 167 289
3 269 290 291
3 145 292 293
3 101 102 199
3 264 265 294
3 10 38 253
3 66 295 296
3 205 206 246
3 28 29 36
3 180 181 281
3 26 76 77
3 16 234 297
3 213 298 299
3 133 208 300
3 57 87 301
3 155 179 220
3 92 96 302
3 19 20 141
3 72 74 303
3 86 108 123
3 39 41 68
3 84 141 255
3 73 74 139
3 117 132 268
3 241 243 304
3 111 112 162
3 20 141 288
3 80 159 161
3 25 135 172
3 166 167 289
3 116 127 268
3 72 73 305
3 52 150 306
3 183 184 298
3 27 28 261
3 45 57 163
3 40 295 296
3 75 77 129
3 0 2 64
3 205 246 307
3 136 137 308
3 110 210 267
3 183 242 298
3 160 266 305
3 119 152 153
3 185 186 309
3 147 249 288
3 263 269 290
3 107 262 310
3 127 234 268
3 72 303 305
3 89 102 199
3 33 34 182
3 30 32 251
3 218 239 311
3 22 162 201
3 15 61 297
3 9 275 312
3 85 99 173
3 223 224 313
3 131 132 268
3 98 174 221
3 57 175 176
3 61 228 256
3 4 5 279
3 195 231 308
3 156 219 220
3 92 93 188
3 115 202 277
3 100 259 314
3 222 223 238
3 40 48 264
3 157 219 282
3 266 315 316
3 247 307 312
3 83 85 99
3 66 68 296
3 49 121 248
3 91 198 293
3 29 107 108
3 51 183 244
3 116 128 222
3 104 188 190
3 6 18 97
3 165 314 317
3 242 298 299
3 100 165 314
3 39 68 318
3 115 245 285
3 119 185 187
3 154 169 181
3 262 263 310
3 49 50 175
3 56 90 145
3 43 112 131
3 29 107 143
3 245 246 284
3 40 41 296
3 258 319 320
3 155 156 220
3 85 184 213
3 225 227 321
3 8 170 171
3 215 291 322
3 225 226 271
3 43 112 279
3 2 267 323
3 7 266 303
3 44 193 324
3 117 118 132
3 141 250 255
3 133 258 300
3 46 191 240
3 257 276 325
3 245 284 285
3 161 165 326
3 158 159 252
3 216 263 290
3 78 80 155
3 111 202 277
3 257 280 325
3 103 105 227
3 88 124 327
3 55 56 145
3 95 125 167
3 57 59 87
3 109 289 328
3 34 154 182
3 105 110 251
3 92 95 209
3 242 299 325
3 45 140 286
3 79 165 221
3 195 217 231
3 37 214 216
3 15 194 274
3 34 96 120
3 119 185 196
3 107 143 310
3 243 280 329
3 176 265 294
3 116 118 222
3 201 285 286
3 50 177 295
3 204 239 297
3 1 164 240
3 189 211 212
3 35 211 287
3 134 135 172
3 156 158 159
3 237 246 284
3 54 194 228
3 243 304 329
3 8 266 316
3 104 190 227
3 169 181 281
3 212 227 321
3 59 138 327
3 149 195 217
3 90 145 146
3 73 139 148
3 6 7 231
3 258 300 319
3 69 70 226
3 35 287 309
3 263 283 310
3 129 203 234
3 89 91 102
3 110 267 320
3 183 242 244
3 147 148 249
3 103 104 227
3 17 235 268
3 70 81 271
3 276 299 325
3 17 193 236
3 175 248 301
3 113 312 330
3 18 19 97
3 10 253 254
3 56 90 200
3 2 126 267
3 108 111 123
3 63 191 197
3 98 99 174
3 204 234 297
3 93 186 187
3 26 38 77
3 145 198 293
3 109 167 327
3 69 226 227
3 21 22 140
3 133 134 258
3 48 49 265
3 110 251 320
3 115 232 277
3 24 76 81
3 4 28 279
3 69 71 251
3 223 321 328
3 232 277 278
3 101 228 229
3 9 151 306
3 44 193 236
3 223 225 271
3 64 319 323
3 42 130 233
3 94 119 187
3 205 275 307
3 242 243 325
3 14 86 273
3 96 120 302
3 147 149 217
3 46 47 240
3 319 320 323
3 111 123 277
3 73 161 305
3 23 130 131
3 191 197 206
3 199 200 324
3 125 126 209
3 7 192 308
3 136 195 308
3 216 262 331
3 0 64 191
3 106 107 331
3 184 213 298
3 118 222 224
3 11 78 221
3 126 209 267
3 32 251 320
3 150 244 304
3 77 129 203
3 104 110 210
3 218 220 311
3 91 230 293
3 189 211 287
3 87 248 301
3 237 284 286
3 31 32 134
3 193 200 324
3 9 312 330
3 37 106 331
3 150 278 304
3 259 326 332
3 67 177 294
3 269 291 322
3 75 238 272
3 119 153 196
3 67 68 318
3 11 52 306
3 246 247 307
3 5 43 279
3 266 303 305
3 98 100 165
3 61 239 297
3 276 315 316
3 121 164 265
3 93 189 287
3 18 20 217
3 49 121 265
3 55 102 230
3 69 105 227
3 3 256 257
3 9 10 25
3 241 244 304
3 78 179 254
3 51 150 244
3 199 229 324
3 166 212 289
3 142 215 322
3 215 216 291
3 169 281 333
3 114 245 247
3 144 145 198
3 31 134 172
3 40 48 50
3 273 329 334
3 46 191 237
3 156 157 219
3 131 235 268
3 57 175 301
3 10 25 38
3 36 37 214
3 3 4 12
3 186 287 309
3 11 52 53
3 5 44 229
3 101 199 229
3 0 191 240
3 118 132 233
3 80 156 159
3 1 121 164
3 267 320 323
3 42 109 313
3 223 271 272
3 24 26 76
3 104 188 210
3 304 329 334
3 86 273 334
3 223 313 328
3 219 276 282
3 109 138 327
3 113 232 278
3 17 235 236
3 36 142 214
3 204 239 311
3 145 230 292
3 53 173 174
3 67 294 318
3 278 304 334
3 58 59 138
3 179 220 311
3 73 148 249
3 84 171 213
3 94 120 302
3 289 321 328
3 75 128 129
3 224 233 313
3 39 40 318
3 115 201 202
3 24 81 82
3 42 233 313
3 45 58 140
3 273 280 329
3 89 90 200
3 216 290 291
3 53 174 221
3 113 151 330
3 113 150 278
3 22 201 286
3 114 247 312
3 24 25 172
3 70 71 82
3 124 125 167
3 257 270 280
3 50 175 177
3 13 106 178
3 73 259 332
3 51 53 173
3 40 264 318
3 73 161 332
3 185 196 309
3 40 50 295
3 66 67 295
3 108 112 261
3 6 18 231
3 8 171 299
3 4 12 28
3 168 169 335
3 165 317 326
3 35 96 166
3 75 76 272
3 45 47 163
3 55 145 230
3 171 213 299
3 259 317 326
3 7 74 303
3 12 270 280
3 179 204 311
3 164 176 265
3 2 64 323
3 12 28 178
3 143 283 310
3 16 234 268
3 93 188 189
3 60 218 239
3 65 197 300
3 275 307 312
3 9 151 330
3 84 97 170
3 25 135 275
3 179 203 253
3 122 123 277
3 109 313 328
3 34 119 152
3 223 225 321
3 169 333 335
3 43 44 236
3 203 204 234
3 64 65 319
3 78 79 221
3 133 135 208
3 45 237 286
3 207 333 335
3 276 282 315
3 44 229 324
3 98 165 221
3 37 216 331
3 259 314 317
3 22 23 162
3 207 281 333
3 33 182 335
3 142 269 322
3 41 68 296
3 182 207 335
3 113 114 312
3 90 91 146
3 15 16 297
3 142 214 215
3 264 294 318
3 33 196 309
3 107 262 331
3 37 106 178
3 70 226 271
3 197 208 300
3 51 52 150
3 142 143 283
3 22 140 286
3 67 177 295
3 112 261 279
3 150 151 306
3 191 206 237
3 33 35 309
3 32 258 320
3 77 203 253
3 20 147 288
3 65 300 319
3 252 282 315
3 137 192 308
3 59 88 327
3 15 17 194
3 252 266 315
3 9 11 306
3 212 289 321
3 29 36 143
3 83 250 260
3 161 326 332
3 8 299 316
3 3 12 270
3 116 127 128
3 92 94 302
3 47 164 240
3 73 249 259
3 118 224 233
3 12 13 178
3 55 101 228
3 100 259 260
3 276 299 316
3 87 121 248
3 76 81 272
3 243 280 325
3 33 153 168
3 7 231 308
3 124 167 327
3 122 278 334
3 23 42 130
3 135 205 208
3 176 177 294
3 114 115 245
3 160 161 305
3 83 250 255
3 223 238 272
3 10 11 78
3 136 148 149
3 16 17 268
3 10 78 254
3 33 168 335
3 3 5 256
3 7 74 192
3 54 193 200
3 91 146 198
3 86 122 334
3 230 292 293
3 54 56 200
3 60 62 276
3 115 201 285
3 111 162 201
3 153 154 169
